<svg viewBox="0 0 874.5 400" xmlns="http://www.w3.org/2000/svg"><g><g><g><g><g><line x1="70" y1="378" x2="65" y2="378" style="visibility: inherit;" fill="rgb(0, 0, 0)" stroke="rgb(204, 204, 204)" stroke-width="1px"></line><line x1="70" y1="340.2" x2="65" y2="340.2" style="visibility: inherit;" fill="rgb(0, 0, 0)" stroke="rgb(204, 204, 204)" stroke-width="1px"></line><line x1="70" y1="302.4" x2="65" y2="302.4" style="visibility: inherit;" fill="rgb(0, 0, 0)" stroke="rgb(204, 204, 204)" stroke-width="1px"></line><line x1="70" y1="264.59999999999997" x2="65" y2="264.59999999999997" style="visibility: inherit;" fill="rgb(0, 0, 0)" stroke="rgb(204, 204, 204)" stroke-width="1px"></line><line x1="70" y1="226.79999999999995" x2="65" y2="226.79999999999995" style="visibility: inherit;" fill="rgb(0, 0, 0)" stroke="rgb(204, 204, 204)" stroke-width="1px"></line><line x1="70" y1="188.99999999999991" x2="65" y2="188.99999999999991" style="visibility: inherit;" fill="rgb(0, 0, 0)" stroke="rgb(204, 204, 204)" stroke-width="1px"></line><line x1="70" y1="151.20000000000002" x2="65" y2="151.20000000000002" style="visibility: inherit;" fill="rgb(0, 0, 0)" stroke="rgb(204, 204, 204)" stroke-width="1px"></line><line x1="70" y1="113.39999999999998" x2="65" y2="113.39999999999998" style="visibility: inherit;" fill="rgb(0, 0, 0)" stroke="rgb(204, 204, 204)" stroke-width="1px"></line><line x1="70" y1="75.59999999999994" x2="65" y2="75.59999999999994" style="visibility: inherit;" fill="rgb(0, 0, 0)" stroke="rgb(204, 204, 204)" stroke-width="1px"></line><line x1="70" y1="37.799999999999905" x2="65" y2="37.799999999999905" style="visibility: inherit;" fill="rgb(0, 0, 0)" stroke="rgb(204, 204, 204)" stroke-width="1px"></line><line x1="70" y1="0" x2="65" y2="0" style="visibility: inherit;" fill="rgb(0, 0, 0)" stroke="rgb(204, 204, 204)" stroke-width="1px"></line></g><g transform="translate(60, 0)"><text x="0" y="378" dx="0em" dy="0.3em" style="text-anchor: end; visibility: hidden; font-family: Roboto, sans-serif; font-size: 12px; font-weight: 200;" fill="rgb(50, 49, 63)" stroke="none" stroke-width="1px">0.012</text><text x="0" y="340.2" dx="0em" dy="0.3em" style="text-anchor: end; visibility: inherit; font-family: Roboto, sans-serif; font-size: 12px; font-weight: 200;" fill="rgb(50, 49, 63)" stroke="none" stroke-width="1px">0.013</text><text x="0" y="302.4" dx="0em" dy="0.3em" style="text-anchor: end; visibility: inherit; font-family: Roboto, sans-serif; font-size: 12px; font-weight: 200;" fill="rgb(50, 49, 63)" stroke="none" stroke-width="1px">0.014</text><text x="0" y="264.59999999999997" dx="0em" dy="0.3em" style="text-anchor: end; visibility: inherit; font-family: Roboto, sans-serif; font-size: 12px; font-weight: 200;" fill="rgb(50, 49, 63)" stroke="none" stroke-width="1px">0.015</text><text x="0" y="226.79999999999995" dx="0em" dy="0.3em" style="text-anchor: end; visibility: inherit; font-family: Roboto, sans-serif; font-size: 12px; font-weight: 200;" fill="rgb(50, 49, 63)" stroke="none" stroke-width="1px">0.016</text><text x="0" y="188.99999999999991" dx="0em" dy="0.3em" style="text-anchor: end; visibility: inherit; font-family: Roboto, sans-serif; font-size: 12px; font-weight: 200;" fill="rgb(50, 49, 63)" stroke="none" stroke-width="1px">0.017</text><text x="0" y="151.20000000000002" dx="0em" dy="0.3em" style="text-anchor: end; visibility: inherit; font-family: Roboto, sans-serif; font-size: 12px; font-weight: 200;" fill="rgb(50, 49, 63)" stroke="none" stroke-width="1px">0.018</text><text x="0" y="113.39999999999998" dx="0em" dy="0.3em" style="text-anchor: end; visibility: inherit; font-family: Roboto, sans-serif; font-size: 12px; font-weight: 200;" fill="rgb(50, 49, 63)" stroke="none" stroke-width="1px">0.019</text><text x="0" y="75.59999999999994" dx="0em" dy="0.3em" style="text-anchor: end; visibility: inherit; font-family: Roboto, sans-serif; font-size: 12px; font-weight: 200;" fill="rgb(50, 49, 63)" stroke="none" stroke-width="1px">0.02</text><text x="0" y="37.799999999999905" dx="0em" dy="0.3em" style="text-anchor: end; visibility: inherit; font-family: Roboto, sans-serif; font-size: 12px; font-weight: 200;" fill="rgb(50, 49, 63)" stroke="none" stroke-width="1px">0.021</text><text x="0" y="0" dx="0em" dy="0.3em" style="text-anchor: end; visibility: hidden; font-family: Roboto, sans-serif; font-size: 12px; font-weight: 200;" fill="rgb(50, 49, 63)" stroke="none" stroke-width="1px">0.022</text></g><line x1="70" y1="0" x2="70" y2="378" fill="rgb(0, 0, 0)" stroke="rgb(204, 204, 204)" stroke-width="1px"></line></g></g><g transform="translate(70, 0)" clip-path="url(#clip_0)"><clipPath id="clip_0"><rect width="804" height="378"></rect></clipPath><g><g><g><line x1="0" y1="0" x2="0" y2="378" fill="rgb(0, 0, 0)" stroke="rgb(60, 60, 60)" stroke-width="1px" opacity="0.25"></line><line x1="67.04166666666666" y1="0" x2="67.04166666666666" y2="378" fill="rgb(0, 0, 0)" stroke="rgb(60, 60, 60)" stroke-width="1px" opacity="0.25"></line><line x1="134.08333333333331" y1="0" x2="134.08333333333331" y2="378" fill="rgb(0, 0, 0)" stroke="rgb(60, 60, 60)" stroke-width="1px" opacity="0.25"></line><line x1="201.125" y1="0" x2="201.125" y2="378" fill="rgb(0, 0, 0)" stroke="rgb(60, 60, 60)" stroke-width="1px" opacity="0.25"></line><line x1="268.16666666666663" y1="0" x2="268.16666666666663" y2="378" fill="rgb(0, 0, 0)" stroke="rgb(60, 60, 60)" stroke-width="1px" opacity="0.25"></line><line x1="335.20833333333337" y1="0" x2="335.20833333333337" y2="378" fill="rgb(0, 0, 0)" stroke="rgb(60, 60, 60)" stroke-width="1px" opacity="0.25"></line><line x1="402.25" y1="0" x2="402.25" y2="378" fill="rgb(0, 0, 0)" stroke="rgb(60, 60, 60)" stroke-width="1px" opacity="0.25"></line><line x1="469.2916666666667" y1="0" x2="469.2916666666667" y2="378" fill="rgb(0, 0, 0)" stroke="rgb(60, 60, 60)" stroke-width="1px" opacity="0.25"></line><line x1="536.3333333333333" y1="0" x2="536.3333333333333" y2="378" fill="rgb(0, 0, 0)" stroke="rgb(60, 60, 60)" stroke-width="1px" opacity="0.25"></line><line x1="603.375" y1="0" x2="603.375" y2="378" fill="rgb(0, 0, 0)" stroke="rgb(60, 60, 60)" stroke-width="1px" opacity="0.25"></line><line x1="670.4166666666667" y1="0" x2="670.4166666666667" y2="378" fill="rgb(0, 0, 0)" stroke="rgb(60, 60, 60)" stroke-width="1px" opacity="0.25"></line><line x1="737.4583333333333" y1="0" x2="737.4583333333333" y2="378" fill="rgb(0, 0, 0)" stroke="rgb(60, 60, 60)" stroke-width="1px" opacity="0.25"></line><line x1="804.5" y1="0" x2="804.5" y2="378" fill="rgb(0, 0, 0)" stroke="rgb(60, 60, 60)" stroke-width="1px" opacity="0.25"></line></g><g><line x1="0" y1="378" x2="804.5" y2="378" fill="rgb(0, 0, 0)" stroke="rgb(60, 60, 60)" stroke-width="1px" opacity="0.25"></line><line x1="0" y1="340.2" x2="804.5" y2="340.2" fill="rgb(0, 0, 0)" stroke="rgb(60, 60, 60)" stroke-width="1px" opacity="0.25"></line><line x1="0" y1="302.4" x2="804.5" y2="302.4" fill="rgb(0, 0, 0)" stroke="rgb(60, 60, 60)" stroke-width="1px" opacity="0.25"></line><line x1="0" y1="264.59999999999997" x2="804.5" y2="264.59999999999997" fill="rgb(0, 0, 0)" stroke="rgb(60, 60, 60)" stroke-width="1px" opacity="0.25"></line><line x1="0" y1="226.79999999999995" x2="804.5" y2="226.79999999999995" fill="rgb(0, 0, 0)" stroke="rgb(60, 60, 60)" stroke-width="1px" opacity="0.25"></line><line x1="0" y1="188.99999999999991" x2="804.5" y2="188.99999999999991" fill="rgb(0, 0, 0)" stroke="rgb(60, 60, 60)" stroke-width="1px" opacity="0.25"></line><line x1="0" y1="151.20000000000002" x2="804.5" y2="151.20000000000002" fill="rgb(0, 0, 0)" stroke="rgb(60, 60, 60)" stroke-width="1px" opacity="0.25"></line><line x1="0" y1="113.39999999999998" x2="804.5" y2="113.39999999999998" fill="rgb(0, 0, 0)" stroke="rgb(60, 60, 60)" stroke-width="1px" opacity="0.25"></line><line x1="0" y1="75.59999999999994" x2="804.5" y2="75.59999999999994" fill="rgb(0, 0, 0)" stroke="rgb(60, 60, 60)" stroke-width="1px" opacity="0.25"></line><line x1="0" y1="37.799999999999905" x2="804.5" y2="37.799999999999905" fill="rgb(0, 0, 0)" stroke="rgb(60, 60, 60)" stroke-width="1px" opacity="0.25"></line><line x1="0" y1="0" x2="804.5" y2="0" fill="rgb(0, 0, 0)" stroke="rgb(60, 60, 60)" stroke-width="1px" opacity="0.25"></line></g></g></g><g><g><line x1="0" y1="831.6" x2="804.5" y2="831.6" fill="rgb(0, 0, 0)" stroke="rgb(153, 153, 153)" stroke-width="1.5px"></line></g></g><g><g><line x1="67.04166666666666" y1="0" x2="67.04166666666666" y2="378" fill="rgb(0, 0, 0)" stroke="rgb(153, 153, 153)" stroke-width="1.5px"></line></g></g><g><g><g><g><g><path stroke="rgb(187, 187, 187)" stroke-width="2px" d="M84.4725,-8.986986499107616L85.81333333333333,3.912488859101922L87.15416666666667,22.3451838064047L88.495,43.5320517329031L89.83583333333333,55.57701733614236L91.17666666666666,56.5714173937737L92.5175,61.90408645466732L93.85833333333333,59.086787027000916L95.19916666666667,74.6971561379391L96.53999999999999,86.70013051856702L97.88083333333334,94.92026858794537L99.22166666666666,89.35043849923763L100.5625,89.94644782751587L101.90333333333334,89.05374646735902L103.24416666666666,104.79147785531477L104.58500000000001,100.82538328084904L105.92583333333333,101.42612636801694L107.26666666666667,120.36783370164866L108.6075,108.27536367609571L109.94833333333332,100.28403429157927L111.28916666666667,104.79100526590237L112.63000000000001,119.72280220201156L113.97083333333333,108.50647141934026L115.31166666666667,109.92681997582488L116.65249999999999,112.23354546071414L117.99333333333334,119.89510052266762L119.33416666666668,104.12570665315658L120.675,121.46734884243837L122.01583333333333,114.56723387661303L123.35666666666665,130.4565191494967L124.6975,143.223253220597L126.03833333333334,135.48394045408335L127.37916666666666,113.93111439556036L128.72,130.36949079938736L130.06083333333333,143.50460108612464L131.40166666666667,148.00799899640492L132.7425,148.4981285973994L134.08333333333331,162.10596234713287L135.42416666666668,159.6432529301232L136.76500000000001,150.08397326770455L138.10583333333332,133.50957470119076L139.44666666666666,147.83513182033053L140.7875,169.36461038011498L142.12833333333333,159.91880586157927L143.46916666666667,114.4994245040993L144.81,124.64235045365058L146.15083333333334,118.569350810358L147.49166666666665,130.06904160708766L148.8325,139.9823742397464L150.17333333333335,148.3707427995108L151.51416666666665,140.95678658823394L152.855,109.65553899967776L154.19583333333335,126.32233907439766L155.53666666666666,79.32774536048449L156.8775,123.78076606771408L158.21833333333333,129.8576791356866L159.55916666666667,119.18495473330404L160.9,138.90547129193058L162.24083333333334,144.30263206409867L163.58166666666668,122.66635011105213L164.92249999999999,116.30994431894112L166.26333333333332,71.0989365286892L167.60416666666669,98.09323323054691L168.945,98.99626716782802L170.28583333333333,130.82652373439157L171.62666666666667,140.55283955172345L172.9675,106.94962348840016L174.30833333333334,98.97568245948183L175.64916666666667,125.37639512193688L176.99,133.23461294753844L178.33083333333335,114.38621540655791L179.67166666666665,100.69172613138025L181.01250000000002,69.95016580649647L182.35333333333332,94.45145412223596L183.69416666666666,84.43119443259873L185.035,86.33450161935232L186.37583333333333,67.22912039709882L187.71666666666667,90.63172950597287L189.05749999999998,114.40559382231041L190.39833333333334,118.00439794296622L191.73916666666668,119.85546241304048L193.07999999999998,101.20784576237664L194.42083333333335,108.18633876979622L195.76166666666668,92.03222927534736L197.1025,108.91722955992319L198.44333333333333,112.156555182281L199.78416666666666,112.64968970450333L201.125,134.11522425074924L202.4658333333333,118.94079249655934L203.80666666666667,118.83095087978685L205.1475,104.14972787960436L206.48833333333332,111.26530923404736L207.82916666666668,103.32965886806517L209.17000000000002,135.35030209192675L210.51083333333332,120.5580243502202L211.85166666666666,132.4645888372744L213.19250000000002,93.53441413071661L214.53333333333333,104.25253566042738L215.87416666666664,125.70799415311906L217.215,147.1675795459848L218.55583333333334,154.2994472315371L219.89666666666665,168.91195375743268L221.2375,176.81076393379425L222.57833333333335,155.35337861331493L223.91916666666665,117.87929811091537L225.26000000000002,140.24521607405725L226.60083333333333,136.62327409176103L227.94166666666666,156.0809913741831L229.28249999999997,136.39379225416678L230.62333333333333,150.75434630896865L231.96416666666667,124.55575995556241L233.30499999999998,160.842143805693L234.64583333333334,161.08709832183743L235.98666666666668,164.42408792705663L237.3275,164.18226650316313L238.66833333333335,180.2006224892068L240.00916666666666,158.22503613481098L241.35,156.45808547406895L242.69083333333336,164.26250590127415L244.03166666666667,184.9984044172866L245.3725,175.43229383698122L246.7133333333333,182.29760035795582L248.05416666666667,194.08207361294393L249.395,195.78589470263455L250.73583333333332,205.40886088297455L252.07666666666668,216.1052572219711L253.4175,218.10783834631087L254.75833333333333,212.07789536580344L256.0991666666667,216.40200679698523L257.44,215.19652645348876L258.7808333333333,205.47433714842415L260.12166666666667,197.33997790918127L261.46250000000003,184.05594385448322L262.80333333333334,178.75257795562285L264.14416666666665,188.11269919818605L265.485,194.08661349502785L266.8258333333333,186.5960392432665L268.16666666666663,207.31882204516256L269.5075,175.61065511288353L270.84833333333336,172.26268460620705L272.18916666666667,173.96924726765903L273.53000000000003,193.1096104383561L274.87083333333334,183.4748964214381L276.21166666666664,205.4227609005008L277.55249999999995,199.9373059753439L278.8933333333333,199.00450343035826L280.2341666666667,201.80043838347882L281.575,210.88080772355733L282.91583333333335,182.29507592913822L284.25666666666666,196.6469582319099L285.59749999999997,180.09968052147858L286.93833333333333,204.37179626368894L288.2791666666667,196.51195257153157L289.62,201.4079193868996L290.96083333333337,192.56621514789825L292.3016666666667,212.9415059383664L293.6425,212.12119293427187L294.9833333333333,189.72950210938288L296.32416666666666,188.99983410936255L297.665,210.42790947736296L299.0058333333333,200.8184392200767L300.3466666666667,217.05975900214065L301.6875,215.2499243469307L303.0283333333333,205.22282884068906L304.3691666666667,191.91357146470315L305.71,213.74589795272686L307.05083333333334,215.7231272566387L308.3916666666667,223.70913023043084L309.7325,215.81250874214413L311.0733333333333,174.98193741090915L312.41416666666663,196.8643488743771L313.755,209.74779024713447L315.0958333333333,206.6825646006657L316.43666666666667,207.91116151711896L317.77750000000003,194.7731303924415L319.11833333333334,215.9774563010987L320.45916666666665,206.70651191690297L321.8,214.4144989348575L323.1408333333333,221.48219481331856L324.4816666666667,212.87769191040243L325.82250000000005,206.6074162124016L327.16333333333336,226.79004950156326L328.50416666666666,216.08944139021938L329.84499999999997,217.1535863193173L331.18583333333333,225.33558496548522L332.52666666666664,219.7513749665843L333.8675,198.31531841795606L335.20833333333337,204.77372051263433L336.5491666666667,216.08525331845635L337.89,221.13089900273533L339.23083333333335,223.56767605816387L340.57166666666666,230.06813781544608L341.91249999999997,223.64705463936946L343.25333333333333,220.8534535055817L344.5941666666667,223.50775012525676L345.935,235.42650423379393L347.2758333333333,223.5720782538155L348.6166666666667,219.767049062246L349.9575,235.97799882709626L351.29833333333335,213.6509807277896L352.63916666666665,211.7809515660512L353.98,210.53332622084062L355.3208333333333,215.91815970917372L356.6616666666667,212.00991526234054L358.0025,224.70838126473365L359.3433333333333,233.62996637423475L360.68416666666667,214.82148743867668L362.02500000000003,196.34076016902793L363.36583333333334,218.24304206764617L364.70666666666665,210.8482180297132L366.0475,219.7643954157684L367.3883333333333,215.2505625092896L368.72916666666663,224.11773005389634L370.07,224.65194911756197L371.41083333333336,215.58411063789174L372.75166666666667,220.88392060660624L374.09250000000003,235.40489977039874L375.43333333333334,239.24294521115996L376.77416666666664,227.61504538120488L378.11499999999995,240.16829812325028L379.4558333333333,235.4076912176429L380.7966666666667,244.85593947242614L382.1375,245.33467920047588L383.47833333333335,243.430868737832L384.81916666666666,250.06063847359138L386.15999999999997,254.02579871425698L387.50083333333333,238.6569283605198L388.8416666666667,240.119173225199L390.1825,235.18907226349995L391.52333333333337,247.37888164595418L392.8641666666667,243.86394852206502L394.205,248.53088430288665L395.5458333333333,251.68347998930955L396.88666666666666,243.3227333240148L398.2275,239.3397619159482L399.5683333333333,246.75065815874714L400.9091666666667,248.04242524700624L402.25,244.22304049490245L403.59083333333336,247.84620154057953L404.9316666666666,259.1216259482802L406.2725,258.4952952577651L407.61333333333334,263.42566802227384L408.95416666666665,257.6533013375037L410.295,252.2129095513483L411.6358333333334,261.1146535521066L412.97666666666663,259.2089579275439L414.3175,254.47457833654818L415.65833333333336,250.77877517621005L416.99916666666667,254.67294590759445L418.34000000000003,249.81358313255413L419.6808333333333,257.96525607164443L421.02166666666665,254.6067531827434L422.3625,257.74637504895594L423.7033333333333,256.5302675776485L425.0441666666667,256.1777505161049L426.38500000000005,252.58019346724052L427.7258333333333,250.14268871325305L429.06666666666666,252.81145896660126L430.4075,258.4764448019674L431.7483333333333,258.6079706223494L433.08916666666664,258.9566050298027L434.43,256.7909665296681L435.7708333333333,259.1086529272918L437.1116666666667,264.21004729378967L438.45250000000004,256.1870615143105L439.7933333333333,239.8544952689722L441.13416666666666,234.39172137732004L442.475,229.7703065356892L443.81583333333333,235.44492337830548L445.1566666666667,243.49553631918243L446.49750000000006,251.73964939759145L447.8383333333333,246.304558185613L449.1791666666667,239.04449879638904L450.52000000000004,241.25435995705453L451.86083333333335,219.8791787031145L453.20166666666665,227.31002525942623L454.54249999999996,232.70650839124374L455.8833333333333,244.78788077958973L457.2241666666667,243.62264001386492L458.56499999999994,248.42849888752184L459.9058333333333,253.88351102620527L461.24666666666667,263.4593004575382L462.5875,263.97686845547025L463.92833333333334,260.711359449542L465.2691666666667,264.16572413880607L466.60999999999996,261.77564537190784L467.9508333333333,263.2708660695755L469.2916666666667,262.73994145833274L470.6325,248.6923080709148L471.97333333333336,244.6858283738237L473.3141666666667,250.40852894484644L474.655,252.6055878996828L475.99583333333334,265.4750279688823L477.3366666666667,262.33542925679615L478.67749999999995,269.67555280902343L480.0183333333333,272.3308474497697L481.3591666666667,260.0038583378018L482.7,264.9482557499422L484.04083333333335,270.433754000903L485.3816666666667,260.84650280942964L486.72249999999997,256.8094173834946L488.06333333333333,251.58430866934222L489.40416666666664,254.09914641044952L490.745,262.2221471569682L492.08583333333337,261.55299436698823L493.4266666666666,266.0539122316269L494.7675,270.7418128629344L496.10833333333335,260.6400105368982L497.44916666666666,254.25715056073014L498.79,258.387381341525L500.1308333333334,264.6364448401141L501.47166666666664,272.2271033032422L502.8125,276.7004728700927L504.15333333333336,266.279470138324L505.4941666666666,259.8021402875022L506.835,270.24220460113503L508.17583333333334,266.6959745338953L509.51666666666665,263.5169748450158L510.8575,270.9496732339166L512.1983333333334,272.84524461775436L513.5391666666667,273.1634186866845L514.88,270.43489820676837L516.2208333333334,276.2580049593317L517.5616666666666,274.58859788173834L518.9025,269.5208360802793L520.2433333333333,268.2077093596257L521.5841666666666,265.55098005622614L522.9250000000001,260.2418932222723L524.2658333333333,267.95289378722896L525.6066666666667,270.3091041073823L526.9475,271.5588500985875L528.2883333333333,270.67644342061124L529.6291666666666,272.15261315808436L530.97,265.22854846957773L532.3108333333333,267.12768977667963L533.6516666666666,278.8238805275326L534.9925000000001,278.3911626476744L536.3333333333333,275.9057383196771L537.6741666666667,275.3952247319948L539.015,274.20621165086817L540.3558333333333,272.06157841295L541.6966666666667,266.41517818218466L543.0375,265.11463913408517L544.3783333333333,270.58820654742476L545.7191666666666,271.82602335329386L547.0600000000001,271.474305774066L548.4008333333334,273.89004231053184L549.7416666666667,251.4536874172544L551.0825000000001,262.40014080211256L552.4233333333333,272.22687465789755L553.7641666666667,262.18047680105474L555.1049999999999,264.6100454422575L556.4458333333333,264.3056155373301L557.7866666666666,268.6637235504177L559.1274999999999,272.23285596440957L560.4683333333334,270.1960016087933L561.8091666666667,265.6268904528763L563.15,271.9993011004774L564.4908333333333,262.575569292131L565.8316666666667,267.5176899517911L567.1725,268.61605233701096L568.5133333333333,267.91195706517715L569.8541666666667,263.76518495912086L571.1949999999999,261.968697103469L572.5358333333334,268.47554699576403L573.8766666666667,271.29457128582305L575.2175,264.538196235525L576.5583333333334,269.9326864830419L577.8991666666667,265.8976296896794L579.24,267.1772393915092L580.5808333333333,273.5149951173684L581.9216666666667,282.30792725883845L583.2624999999999,282.2906816584047L584.6033333333334,276.65762289298635L585.9441666666667,279.01216610570583L587.285,271.12149047374623L588.6258333333334,275.0273560727829L589.9666666666666,278.15812121243437L591.3075,274.84158332831356L592.6483333333333,275.46641607932264L593.9891666666666,275.82407985479836L595.33,268.2499917402935L596.6708333333333,276.3505034771605L598.0116666666667,270.63078542751333L599.3525,270.677841380848L600.6933333333334,263.8072328714213L602.0341666666667,259.9359426461269L603.375,265.869997593916L604.7158333333333,261.75128492841515L606.0566666666666,272.13043019491073L607.3975,274.4525975597956L608.7383333333333,273.2031482817565L610.0791666666667,266.4215842546127L611.42,268.533481353587L612.7608333333334,275.21293787244923L614.1016666666667,271.9392008661268L615.4425,276.7219025533817L616.7833333333334,271.54687599131L618.1241666666666,272.5316206108839L619.465,254.91251183934875L620.8058333333333,264.2328376965992L622.1466666666666,271.33759390635913L623.4875000000001,266.78705749645013L624.8283333333333,272.7234941132914L626.1691666666667,267.84524092960663L627.51,268.23297029607477L628.8508333333333,266.2905784742414L630.1916666666666,269.50888544537895L631.5325,263.5501618690388L632.8733333333333,260.67379739863253L634.2141666666666,274.2150071524535L635.5550000000001,275.1692569108578L636.8958333333333,279.259206717716L638.2366666666667,277.0475491222777L639.5775,277.9309147344254L640.9183333333333,263.26037080503835L642.2591666666667,266.82785464118325L643.6,275.2634526204491L644.9408333333333,275.38707114168545L646.2816666666666,268.8582263696703L647.6225000000001,268.79533432713225L648.9633333333334,269.4433447282974L650.3041666666667,269.6987137527146L651.6450000000001,272.155290205531L652.9858333333333,282.8337989051656L654.3266666666667,274.2796012484738L655.6674999999999,271.18667529307055L657.0083333333333,271.8616503100528L658.3491666666666,272.56367253428306L659.6899999999999,268.909967315588L661.0308333333334,265.65264032566165L662.3716666666667,269.4210334490753L663.7125,273.8672375149141L665.0533333333333,267.1638681564695L666.3941666666667,273.6175551601628L667.735,266.7021231996048L669.0758333333333,272.6939093999283L670.4166666666667,262.6658242745529L671.7574999999999,266.78314675648994L673.0983333333334,273.5977411845921L674.4391666666667,274.4584043067455L675.78,277.98896808813566L677.1208333333334,263.75033412450875L678.4616666666667,273.7862161187787L679.8025,272.08681958189356L681.1433333333333,275.6576697359726L682.4841666666667,277.68372501851593L683.8249999999999,277.84381573391846L685.1658333333334,282.4893385463529L686.5066666666667,275.73507453701336L687.8475,280.1187306827392L689.1883333333334,272.23349156535187L690.5291666666666,277.81552691731764L691.87,278.7223232351179L693.2108333333333,280.2120929391644L694.5516666666666,277.48215426036484L695.8925,280.8305269117878L697.2333333333333,286.22427364443104L698.5741666666667,291.21000525447346L699.915,288.6048119335926L701.2558333333334,286.1558789795373L702.5966666666667,283.24721098099553L703.9375,286.0894707146549L705.2783333333333,286.29974112172505L706.6191666666666,287.51787491237866L707.96,286.28461174664346L709.3008333333333,285.1401318007555L710.6416666666667,281.52119057678266L711.9825,284.50453536035474L713.3233333333334,283.84499204887067L714.6641666666667,283.17143614669516L716.005,278.8053466259233L717.3458333333334,282.83055930547664L718.6866666666666,276.2542349792286L720.0275,280.5367823950508L721.3683333333333,279.70792855334633L722.7091666666666,282.73787331826907L724.0500000000001,274.64071994809757L725.3908333333333,280.55442743413715L726.7316666666667,277.08249688335104L728.0725,270.8485201900473L729.4133333333333,275.45252262921747L730.7541666666666,274.574803020189L732.095,276.8023345498024L733.4358333333333,276.89556107627027L734.7766666666666,279.73471062246966L736.1175000000001,278.1847176954985" style="fill: none;" fill="none"></path></g><g><path stroke="rgb(0, 153, 136)" stroke-width="2px" d="M87.15416666666667,-1.7046046635362053L88.495,6.730219945995064L89.83583333333333,14.734877442085642L91.17666666666666,25.60984439002428L92.5175,26.16795031534191L93.85833333333333,40.49520245708712L95.19916666666667,53.40077237837129L96.53999999999999,56.467216741027045L97.88083333333334,65.31934227144048L99.22166666666666,74.61020228004321L100.5625,71.17308330816873L101.90333333333334,78.62415542680144L103.24416666666666,82.38795352372149L104.58500000000001,89.886445810348L105.92583333333333,89.47948165715152L107.26666666666667,95.93958076324246L108.6075,100.25000066423837L109.94833333333332,100.55289310628784L111.28916666666667,106.67557015565356L112.63000000000001,103.41731272667705L113.97083333333333,105.27909081072704L115.31166666666667,103.3669244128806L116.65249999999999,114.82127424072704L117.99333333333334,121.2872920680545L119.33416666666668,121.20515799442882L120.675,126.18962615126773L122.01583333333333,129.58329419534442L123.35666666666665,131.64748923624165L124.6975,131.3722908737457L126.03833333333334,129.54044583314658L127.37916666666666,125.31145033377277L128.72,132.2269448314982L130.06083333333333,132.94258483738574L131.40166666666667,135.7280453795025L132.7425,142.2953241166305L134.08333333333331,143.04333691816888L135.42416666666668,146.0269166077543L136.76500000000001,149.06683434757326L138.10583333333332,144.67730833358743L139.44666666666666,149.06549388568186L140.7875,152.8850050973941L142.12833333333333,155.08974387932173L143.46916666666667,155.29115690045566L144.81,155.05447295697334L146.15083333333334,161.90853810186303L147.49166666666665,162.98157705828615L148.8325,165.68117282608193L150.17333333333335,167.03839298617274L151.51416666666665,164.10527407486097L152.855,167.1460445628098L154.19583333333335,164.46983120712807L155.53666666666666,162.0681831495355L156.8775,165.5336452720398L158.21833333333333,163.3968078158996L159.55916666666667,166.6208728136241L160.9,165.52962715754632L162.24083333333334,168.4442830546481L163.58166666666668,173.70035187624583L164.92249999999999,177.88130202068507L166.26333333333332,170.26424607976443L167.60416666666669,174.64036109294992L168.945,169.76977625278528L170.28583333333333,179.62993899695815L171.62666666666667,174.59545431800325L172.9675,174.6372574607588L174.30833333333334,174.05849228978502L175.64916666666667,177.68466566848969L176.99,176.19960500149853L178.33083333333335,172.68128049820024L179.67166666666665,172.52036172061779L181.01250000000002,179.9742502886631L182.35333333333332,184.9084034954654L183.69416666666666,184.65581286759053L185.035,183.68166790134234L186.37583333333333,184.36339815334387L187.71666666666667,173.78721324965892L189.05749999999998,180.443463568482L190.39833333333334,185.8477110377509L191.73916666666668,188.7775635690426L193.07999999999998,183.64602543180794L194.42083333333335,184.9948073605634L195.76166666666668,191.47191944241158L197.1025,193.40977239560854L198.44333333333333,197.8766464910017L199.78416666666666,190.11205592519673L201.125,194.8019332359233L202.4658333333333,192.30492886364453L203.80666666666667,198.21803989326955L205.1475,199.97486814687255L206.48833333333332,197.95405118006235L207.82916666666668,201.78685650669198L209.17000000000002,195.8112637272039L210.51083333333332,202.3031778818701L211.85166666666666,201.53416338123887L213.19250000000002,200.60544279192692L214.53333333333333,204.58470967039338L215.87416666666664,205.10888018622927L217.215,206.6733777273591L218.55583333333334,206.61228284173583L219.89666666666665,208.25756005843508L221.2375,212.15618112564098L222.57833333333335,208.97821209597586L223.91916666666665,205.77383964757917L225.26000000000002,203.5733017736721L226.60083333333333,205.03136269176284L227.94166666666666,205.09662004902526L229.28249999999997,204.8210225999031L230.62333333333333,205.24956957934344L231.96416666666667,213.35442828439497L233.30499999999998,215.15941199483171L234.64583333333334,216.53482067121092L235.98666666666668,218.04229110439434L237.3275,218.33098511314282L238.66833333333335,220.34711648712087L240.00916666666666,218.9507422571751L241.35,215.7518844583853L242.69083333333336,214.01337748880522L244.03166666666667,214.76156513998117L245.3725,218.78852712219478L246.7133333333333,216.68944012824014L248.05416666666667,219.4158967083889L249.395,221.097535847795L250.73583333333332,222.15352370332002L252.07666666666668,217.10806454056686L253.4175,223.64098261138315L254.75833333333333,221.7037746771605L256.0991666666667,223.79277808692652L257.44,225.3038452006972L258.7808333333333,228.25606278643588L260.12166666666667,225.94356113353714L261.46250000000003,226.42344892668334L262.80333333333334,232.8242593291259L264.14416666666665,227.279473604134L265.485,224.03802113853175L266.8258333333333,226.58455961657924L268.16666666666663,228.97616339393468L269.5075,227.7836122516871L270.84833333333336,229.0046109941053L272.18916666666667,233.65763958850187L273.53000000000003,233.028586143009L274.87083333333334,236.16634321674834L276.21166666666664,238.99716773548798L277.55249999999995,237.9977692146247L278.8933333333333,237.26151044482856L280.2341666666667,238.90623954066555L281.575,238.62245222645353L282.91583333333335,237.11676563690517L284.25666666666666,240.30994381469742L285.59749999999997,240.77706558026222L286.93833333333333,237.8188388044676L288.2791666666667,237.9933872362995L289.62,240.4122719187155L290.96083333333337,241.0471235518822L292.3016666666667,238.14258665115656L293.6425,242.8994228999079L294.9833333333333,247.64507745505938L296.32416666666666,244.95907835484482L297.665,241.97550886703092L299.0058333333333,245.67061402638288L300.3466666666667,245.19651489340976L301.6875,249.30121889283484L303.0283333333333,246.96379374247923L304.3691666666667,244.2184612046607L305.71,246.6830881018L307.05083333333334,248.28878167680247L308.3916666666667,247.80849613732894L309.7325,248.49474318556068L311.0733333333333,250.25295966942357L312.41416666666663,245.81936169552358L313.755,245.95254120998115L315.0958333333333,248.18421556158384L316.43666666666667,247.19449009599398L317.77750000000003,242.44854094685388L319.11833333333334,244.38487027288244L320.45916666666665,247.6034400558517L321.8,250.15725607788835L323.1408333333333,254.65748171518015L324.4816666666667,258.9440076077567L325.82250000000005,251.4634510138384L327.16333333333336,250.65201926223938L328.50416666666666,250.72082004185023L329.84499999999997,255.63578358969386L331.18583333333333,255.00254417408289L332.52666666666664,257.4819533517884L333.8675,253.6903939384775L335.20833333333337,250.96676227322553L336.5491666666667,258.48274889154044L337.89,257.0159701404738L339.23083333333335,258.9579254023891L340.57166666666666,262.2811315132773L341.91249999999997,255.42320820174194L343.25333333333333,254.65852254558547L344.5941666666667,258.1199856032667L345.935,260.24191046772825L347.2758333333333,263.58500386725916L348.6166666666667,265.7027663609448L349.9575,257.6368178910651L351.29833333333335,258.33168268064486L352.63916666666665,256.6511757955541L353.98,255.40193553421435L355.3208333333333,261.0843862626167L356.6616666666667,266.1663984223134L358.0025,267.8420163067535L359.3433333333333,267.5924210019324L360.68416666666667,261.7257183645614L362.02500000000003,264.5935036149292L363.36583333333334,263.09100978950676L364.70666666666665,265.91492680180085L366.0475,258.82133231978423L367.3883333333333,259.48514492106926L368.72916666666663,264.4675134312658L370.07,263.00990977475334L371.41083333333336,262.0425920992451L372.75166666666667,265.4037250756834L374.09250000000003,266.78280421612345L375.43333333333334,266.9441639835697L376.77416666666664,266.37145621747146L378.11499999999995,269.1537067775152L379.4558333333333,272.2299213394059L380.7966666666667,273.66211580780345L382.1375,271.7597496208382L383.47833333333335,263.2590477577943L384.81916666666666,266.9480498970806L386.15999999999997,265.43506624288915L387.50083333333333,266.41656171910506L388.8416666666667,267.32273147423587L390.1825,269.17545861494256L391.52333333333337,268.74966610307524L392.8641666666667,272.83884214600937L394.205,273.76187528455864L395.5458333333333,272.6843139540232L396.88666666666666,272.80837848788957L398.2275,270.60366843585047L399.5683333333333,267.8368309250109L400.9091666666667,268.91145910922484L402.25,266.4044365793693L403.59083333333336,269.64049708844584L404.9316666666666,268.923387002357L406.2725,274.6026050123025L407.61333333333334,269.77487974241075L408.95416666666665,269.706969933359L410.295,270.56381322482116L411.6358333333334,268.42949461900514L412.97666666666663,268.7999848238428L414.3175,273.886499193418L415.65833333333336,276.5593312150884L416.99916666666667,273.4124345902591L418.34000000000003,268.9074711390727L419.6808333333333,273.14073587229217L421.02166666666665,272.7159974555395L422.3625,276.2528357100619L423.7033333333333,271.1527408619006L425.0441666666667,271.53008635039805L426.38500000000005,272.2742880588512L427.7258333333333,272.14632215772514L429.06666666666666,279.8290660087731L430.4075,280.7624297049324L431.7483333333333,275.308085050981L433.08916666666664,272.42318687784723L434.43,279.03197542040374L435.7708333333333,278.5219338542749L437.1116666666667,282.1789491770583L438.45250000000004,283.6291994206856L439.7933333333333,284.2251808668823L441.13416666666666,284.41422709617916L442.475,281.1667577546472L443.81583333333333,282.44125806460585L445.1566666666667,283.7055029157985L446.49750000000006,284.6624172880762L447.8383333333333,286.1018941488571L449.1791666666667,285.04420263628407L450.52000000000004,286.8346640942111L451.86083333333335,286.4866433124312L453.20166666666665,288.8098428589444L454.54249999999996,285.2263122160638L455.8833333333333,283.74346440132877L457.2241666666667,285.34794455764546L458.56499999999994,279.84474336146025L459.9058333333333,284.71752785109703L461.24666666666667,282.18411488749524L462.5875,282.80201970528327L463.92833333333334,280.78262267345644L465.2691666666667,287.2916989638475L466.60999999999996,281.37447019541673L467.9508333333333,284.18976125135663L469.2916666666667,288.0935627783218L470.6325,283.78135957150926L471.97333333333336,285.21336205440326L473.3141666666667,288.1134657713029L474.655,291.0280740345867L475.99583333333334,284.66040343495314L477.3366666666667,287.46450261981545L478.67749999999995,284.0284563995079L480.0183333333333,286.2957088283704L481.3591666666667,286.1789711339477L482.7,282.1109799750568L484.04083333333335,285.09093841599946L485.3816666666667,288.23374620430184L486.72249999999997,290.6158635094912L488.06333333333333,286.8077794799299L489.40416666666664,288.5282704430277L490.745,289.12014898284997L492.08583333333337,289.7143112213893L493.4266666666666,292.04472463318604L494.7675,294.418081050449L496.10833333333335,292.7387079920372L497.44916666666666,294.77407509481907L498.79,290.3771323072672L500.1308333333334,292.1121334193802L501.47166666666664,291.35367492727374L502.8125,292.56087607021294L504.15333333333336,292.05460596546624L505.4941666666666,290.8973864517516L506.835,292.5293627853338L508.17583333333334,295.2738880345311L509.51666666666665,295.0977826547078L510.8575,292.9794226390989L512.1983333333334,292.3939832772536L513.5391666666667,293.23364259098304L514.88,294.5100672614236L516.2208333333334,296.2898674793041L517.5616666666666,294.58381375235297L518.9025,297.4093720642446L520.2433333333333,297.98289660022965L521.5841666666666,291.97446480874015L522.9250000000001,296.80324049522756L524.2658333333333,298.26675991195606L525.6066666666667,300.7676770828853L526.9475,294.68594905928916L528.2883333333333,298.6629984205731L529.6291666666666,300.94846012686304L530.97,300.2727094286359L532.3108333333333,294.86356054149127L533.6516666666666,293.1848742175225L534.9925000000001,296.8762971668317L536.3333333333333,298.38931004398313L537.6741666666667,295.5660436606004L539.015,297.4305738833901L540.3558333333333,295.28289653762323L541.6966666666667,292.0333854574212L543.0375,293.5617770229726L544.3783333333333,294.6895571479171L545.7191666666666,299.4979348581415L547.0600000000001,296.8221246177782L548.4008333333334,300.4456706622141L549.7416666666667,301.0955639492809L551.0825000000001,302.92465325005884L552.4233333333333,298.9594346327068L553.7641666666667,300.28255254223836L555.1049999999999,296.1822796469623L556.4458333333333,299.34251793299285L557.7866666666666,300.7414256213556L559.1274999999999,300.64575217178157L560.4683333333334,298.81309520847014L561.8091666666667,298.19652798203475L563.15,299.4874979694357L564.4908333333333,300.3302489745421L565.8316666666667,296.0392146717192L567.1725,299.2487369269539L568.5133333333333,303.72265613260316L569.8541666666667,300.11325181175744L571.1949999999999,304.2718094769089L572.5358333333334,304.009640584765L573.8766666666667,299.5669289793838L575.2175,304.23650463558846L576.5583333333334,306.414322614894L577.8991666666667,304.93292753948316L579.24,298.98036217661826L580.5808333333333,305.35426086707196L581.9216666666667,301.21417536689813L583.2624999999999,301.53913518341767L584.6033333333334,307.1343754854941L585.9441666666667,306.2631257842269L587.285,307.9376543289594L588.6258333333334,302.93261326647826L589.9666666666666,303.65060847817074L591.3075,300.9411389930142L592.6483333333333,304.4498752381261L593.9891666666666,305.13842380439377L595.33,304.8311525064417L596.6708333333333,305.4648882876461L598.0116666666667,301.64477233413606L599.3525,304.1622019214853L600.6933333333334,301.19162785371685L602.0341666666667,301.9274250552687L603.375,304.3267805055161L604.7158333333333,306.51912556084284L606.0566666666666,301.7210493587988L607.3975,299.4211403485261L608.7383333333333,302.16628622687597L610.0791666666667,304.32819695220434L611.42,305.1593833318117L612.7608333333334,304.2115208292462L614.1016666666667,309.4325928851639L615.4425,307.1632678332731L616.7833333333334,310.7149674155L618.1241666666666,312.96948277340425L619.465,308.6110199885732L620.8058333333333,309.5581217489938L622.1466666666666,307.0479062421501L623.4875000000001,304.50428709169506L624.8283333333333,303.42661447632474L626.1691666666667,307.4709148538599L627.51,308.28678565159373L628.8508333333333,308.1513386776146L630.1916666666666,307.47119424045667L631.5325,311.48739056110725L632.8733333333333,312.6200623734018L634.2141666666666,309.8212996967566L635.5550000000001,312.63956346141885L636.8958333333333,315.0636378403162L638.2366666666667,314.63897779379215L639.5775,313.32233075615125L640.9183333333333,310.3635512394688L642.2591666666667,311.6010694410193L643.6,309.13352535341915L644.9408333333333,309.77006848797043L646.2816666666666,310.28436138358614L647.6225000000001,306.7826821895057L648.9633333333334,310.78028774151886L650.3041666666667,310.7643640684467L651.6450000000001,308.5654171936143L652.9858333333333,307.85999263062644L654.3266666666667,311.9186286904488L655.6674999999999,311.1736505489393L657.0083333333333,310.6320916563776L658.3491666666666,312.56999860349333L659.6899999999999,314.96705110396766L661.0308333333334,316.22482693449155L662.3716666666667,318.4082676241129L663.7125,313.05866588707744L665.0533333333333,312.63066807064996L666.3941666666667,311.5211160097933L667.735,314.3797128709802L669.0758333333333,313.28141008631286L670.4166666666667,310.339350877499L671.7574999999999,307.84635023909533L673.0983333333334,312.60111744128307L674.4391666666667,316.8031637658038L675.78,318.4379268455122L677.1208333333334,313.82715137348254L678.4616666666667,311.7373772498708L679.8025,312.01021139483095L681.1433333333333,314.00157648062975L682.4841666666667,316.39228926680244L683.8249999999999,316.14807788420774L685.1658333333334,314.27190845482977L686.5066666666667,317.22418105705634L687.8475,318.54789063932924L689.1883333333334,316.7669301957037L690.5291666666666,318.960285542616L691.87,314.1118823779873L693.2108333333333,315.7117256989033L694.5516666666666,319.7759198224515L695.8925,318.3001183608753L697.2333333333333,315.5087636935462L698.5741666666667,317.2770422558635L699.915,320.66169825796186L701.2558333333334,318.02375234665806L702.5966666666667,321.31973725499114L703.9375,322.4082583894814L705.2783333333333,322.17086493673827L706.6191666666666,322.8280805325681L707.96,317.5593265453681L709.3008333333333,318.19785237608573L710.6416666666667,320.60177566229237L711.9825,317.0382766814168L713.3233333333334,317.53584394640535L714.6641666666667,317.46591114811184L716.005,317.86970443255956L717.3458333333334,319.0753024764494L718.6866666666666,315.1814181916496L720.0275,318.3105216653693L721.3683333333333,320.0542930645674L722.7091666666666,314.9384770764667L724.0500000000001,314.69157326005444L725.3908333333333,317.6801490198526L726.7316666666667,318.88592288797815L728.0725,318.05920048538275L729.4133333333333,317.41516945590627L730.7541666666666,317.89136132735047L732.095,320.3433753015878L733.4358333333333,319.4387929113079L734.7766666666666,323.2087438828568L736.1175000000001,318.34811580281377" style="fill: none;" fill="none"></path></g></g></g></g><g opacity="0.2"><g><g><g><path stroke="rgb(187, 187, 187)" stroke-width="2px" d="M81.79083333333334,-27.106577494740502L83.13166666666666,37.38889846801752L84.4725,-6.426625290513055L85.81333333333333,23.24653904736036L87.15416666666667,49.9812260627746L88.495,75.30338805019854L89.83583333333333,73.64140752553938L91.17666666666666,58.06286599338049L92.5175,69.9026026189327L93.85833333333333,54.86099239289755L95.19916666666667,98.11219613850115L96.53999999999999,104.70435511171816L97.88083333333334,107.25037831664083L99.22166666666666,80.99573295414446L100.5625,90.84045927822588L101.90333333333334,87.71469671130178L103.24416666666666,128.398050776124L104.58500000000001,94.876245072484L105.92583333333333,102.32724066674707L107.26666666666667,148.78038842082023L108.6075,90.13666104376314L109.94833333333332,88.29704116880892L111.28916666666667,111.55146140456198L112.63000000000001,142.12049696445465L113.97083333333333,91.68197553455828L115.31166666666667,112.05734278857706L116.65249999999999,115.69363366663454L117.99333333333334,131.3874330729246L119.33416666666668,80.47161590158937L120.675,147.47981209158897L122.01583333333333,104.21706143617628L123.35666666666665,154.29044704735279L124.6975,162.3733543217182L126.03833333333334,123.87497130632399L127.37916666666666,81.60187531113623L128.72,155.0270554035902L130.06083333333333,163.2072665154934L131.40166666666667,154.76309586167335L132.7425,149.23332299888133L134.08333333333331,182.5177129715681L135.42416666666668,155.94918880462646L136.76500000000001,135.74505377411842L138.10583333333332,108.6479768514633L139.44666666666666,169.3234674990177L140.7875,201.65882821977138L142.12833333333333,145.75009908378124L143.46916666666667,46.3703524678945L144.81,139.85673937797546L146.15083333333334,109.45985134541986L147.49166666666665,147.31857780218124L148.8325,154.85237318873405L150.17333333333335,160.9532956391573L151.51416666666665,129.83585227131843L152.855,62.70366761684412L154.19583333333335,151.32253918647766L155.53666666666666,8.835854789614618L156.8775,190.46029712855815L158.21833333333333,138.97304873764514L159.55916666666667,103.1758681297302L160.9,168.4862461298704L162.24083333333334,152.39837322235107L163.58166666666668,90.2119271814823L164.92249999999999,106.77533563077448L166.26333333333332,3.282424843311251L167.60416666666669,138.58467828333377L168.945,100.35081807374952L170.28583333333333,178.5719085842371L171.62666666666667,155.1423132777214L172.9675,56.544799393415396L174.30833333333334,87.0147709161043L175.64916666666667,164.97746411561965L176.99,145.02193968594074L178.33083333333335,86.11361909508703L179.67166666666665,80.1499922186136L181.01250000000002,23.837825319170893L182.35333333333332,131.20338659584522L183.69416666666666,69.4008048981428L185.035,89.18946239948271L186.37583333333333,38.57104856371874L187.71666666666667,125.73564316928385L189.05749999999998,150.06639029681682L190.39833333333334,123.40260412394998L191.73916666666668,122.63205911815164L193.07999999999998,73.23642078638075L194.42083333333335,118.65407828092573L195.76166666666668,67.80106503367418L197.1025,134.24472998678684L198.44333333333333,117.015543615818L199.78416666666666,113.38939148783682L201.125,166.31352607011794L202.4658333333333,96.17914486527441L203.80666666666667,118.66618845462797L205.1475,82.12789337933062L206.48833333333332,121.93868126571176L207.82916666666668,91.42618331909178L209.17000000000002,183.3812669277191L210.51083333333332,98.36960773766039L211.85166666666666,150.32443556785583L213.19250000000002,35.13915207087988L214.53333333333333,120.32971795499323L215.87416666666664,157.8911818921566L217.215,179.35695763528346L218.55583333333334,164.99724875986576L219.89666666666665,190.8307135462761L221.2375,188.6589791983366L222.57833333333335,123.167300632596L223.91916666666665,61.66817735731596L225.26000000000002,173.7940930187702L226.60083333333333,131.19036111831664L227.94166666666666,185.26756729781627L229.28249999999997,106.86299357414244L230.62333333333333,172.29517739117145L231.96416666666667,85.25788042545317L233.30499999999998,215.27171958088874L234.64583333333334,161.45453009605407L235.98666666666668,169.4295723348856L237.3275,163.81953436732292L238.66833333333335,204.2281564682722L240.00916666666666,125.2616566032171L241.35,153.80765948295593L242.69083333333336,175.96913654208183L244.03166666666667,216.10225219130515L245.3725,161.08312796652316L246.7133333333333,192.59556013941764L248.05416666666667,211.75878349542617L249.395,198.3416263371706L250.73583333333332,219.84331015348434L252.07666666666668,232.14985173046588L253.4175,221.1117100328207L254.75833333333333,203.0329808950424L256.0991666666667,222.888173943758L257.44,213.38830593824386L258.7808333333333,190.89105319082736L260.12166666666667,185.1384390503168L261.46250000000003,164.12989277243614L262.80333333333334,170.79752910733222L264.14416666666665,202.1528810620308L265.485,203.04748494029045L266.8258333333333,175.36017786562442L268.16666666666663,238.40299624800681L269.5075,128.04840471446514L270.84833333333336,167.24072884619235L272.18916666666667,176.52909125983714L273.53000000000003,221.82015519440174L274.87083333333334,169.02282539606094L276.21166666666664,238.34455761909484L277.55249999999995,191.70912358760833L278.8933333333333,197.60529961287975L280.2341666666667,205.99434081315994L281.575,224.501361733675L282.91583333333335,139.41647823750972L284.25666666666666,218.17478168606758L285.59749999999997,155.27876395583152L286.93833333333333,240.77996987700462L288.2791666666667,184.72218703329563L289.62,208.75186960995197L290.96083333333337,179.30365878939628L292.3016666666667,243.50444212406873L293.6425,210.89072342813014L294.9833333333333,156.14196587204933L296.32416666666666,187.90533210933208L297.665,242.57002252936363L299.0058333333333,186.40423383414745L300.3466666666667,241.4217386752367L301.6875,212.5351723641157L303.0283333333333,190.18218558132648L304.3691666666667,171.9496854007244L305.71,246.49438768476247L307.05083333333334,218.6889712125063L308.3916666666667,235.6881346911192L309.7325,203.96757650971412L311.0733333333333,113.73608041405676L312.41416666666663,229.68796606957912L313.755,229.0729523062706L315.0958333333333,202.08472613096237L316.43666666666667,209.75405689179897L317.77750000000003,175.06608370542526L319.11833333333334,247.78394516408443L320.45916666666665,192.80009534060954L321.8,225.97647946178913L323.1408333333333,232.08373863101005L324.4816666666667,199.97093755602836L325.82250000000005,197.2020026654005L327.16333333333336,257.06399943530556L328.50416666666666,200.03852922320365L329.84499999999997,218.74980371296405L331.18583333333333,237.6085829347372L332.52666666666664,211.3750599682331L333.8675,166.1612335950136L335.20833333333337,214.46132365465164L336.5491666666667,233.05255252718925L337.89,228.69936752915382L339.23083333333335,227.22284164130687L340.57166666666666,239.81883045136928L341.91249999999997,214.01542987525463L343.25333333333333,216.66305180490016L344.5941666666667,227.4891950547695L345.935,253.30463539659976L347.2758333333333,205.7904392838478L348.6166666666667,214.05950527489185L349.9575,260.2944234743714L351.29833333333335,180.16045357882976L352.63916666666665,208.9759078234434L353.98,208.66188820302486L355.3208333333333,223.99540994167327L356.6616666666667,206.1475485920906L358.0025,243.75608026832342L359.3433333333333,247.01234403848648L360.68416666666667,186.60876903533935L362.02500000000003,168.61966926455497L363.36583333333334,251.0964649155736L364.70666666666665,199.7559819728136L366.0475,233.1386614948511L367.3883333333333,208.4798131495714L368.72916666666663,237.4184813708067L370.07,225.45327771306037L371.41083333333336,201.98235291838645L372.75166666666667,228.83363555967807L374.09250000000003,257.1863685160875L375.43333333333334,245.00001337230205L376.77416666666664,210.17319563627242L378.11499999999995,258.99817723631855L379.4558333333333,228.26678085923194L380.7966666666667,259.0283118546009L382.1375,246.05278879255056L383.47833333333335,240.57515304386615L384.81916666666666,260.0052930772304L386.15999999999997,259.97353907525536L387.50083333333333,215.6036228299141L388.8416666666667,242.31254052221774L390.1825,227.79392082095146L391.52333333333337,265.66359571963545L392.8641666666667,238.59154883623123L394.205,255.53128797411918L395.5458333333333,256.41237351894375L396.88666666666666,230.7816133260727L398.2275,233.36530480384826L399.5683333333333,257.86700252294537L400.9091666666667,249.980075879395L402.25,238.4939633667469L403.59083333333336,253.2809431090951L404.9316666666666,276.0347625598311L406.2725,257.55579922199246L407.61333333333334,270.82122716903683L408.95416666666665,248.9947513103485L410.295,244.05232187211513L411.6358333333334,274.4672695532441L412.97666666666663,256.35041449069973L414.3175,247.37300895005464L415.65833333333336,245.2350704357028L416.99916666666667,260.51420200467106L418.34000000000003,242.52453896999359L419.6808333333333,270.1927654802799L421.02166666666665,249.56899884939193L422.3625,262.4558078482747L423.7033333333333,254.70610637068748L425.0441666666667,255.6489749237895L426.38500000000005,247.18385789394378L427.7258333333333,246.48643158227205L429.06666666666666,256.8146143466234L430.4075,266.9739235550165L431.7483333333333,258.8052593529224L433.08916666666664,259.4795566409826L434.43,253.54250877946615L435.7708333333333,262.5851825237274L437.1116666666667,271.86213884353634L438.45250000000004,244.1525828450918L439.7933333333333,215.35564590096473L441.13416666666666,226.19756053984165L442.475,222.83818427324294L443.81583333333333,243.95684864223003L445.1566666666667,255.57145573049783L446.49750000000006,264.1058190152049L447.8383333333333,238.15192136764526L449.1791666666667,228.15440971255302L450.52000000000004,244.56915169805288L451.86083333333335,187.81640682220458L453.20166666666665,238.456295093894L454.54249999999996,240.80123308897018L455.8833333333333,262.9099393621087L457.2241666666667,241.87477886527776L458.56499999999994,255.6372871980071L459.9058333333333,262.0660292342305L461.24666666666667,277.82298460453745L462.5875,264.7532204523682L463.92833333333334,255.8130959406495L465.2691666666667,269.3472711727023L466.60999999999996,258.19052722156044L467.9508333333333,265.5136971160769L469.2916666666667,261.9435545414686L470.6325,227.62085798978805L471.97333333333336,238.67610882818698L473.3141666666667,258.9925798013806L474.655,255.9011763319373L475.99583333333334,284.7791880726814L477.3366666666667,257.6260311886668L478.67749999999995,280.68573813736435L480.0183333333333,276.3137894108891L481.3591666666667,241.51337466984987L482.7,272.3648518681526L484.04083333333335,278.6620013773441L485.3816666666667,246.46562602221965L486.72249999999997,250.75378924459218L488.06333333333333,243.74664559811353L489.40416666666664,257.8714030221104L490.745,274.40664827674624L492.08583333333337,260.54926518201825L493.4266666666666,272.8052890285849L494.7675,277.7736638098955L496.10833333333335,245.48730704784393L497.44916666666666,244.68286059647798L498.79,264.5827275127172L500.1308333333334,274.0100400879979L501.47166666666664,283.6130909979343L502.8125,283.41052722036835L504.15333333333336,250.64796604067087L505.4941666666666,250.08614551126956L506.835,285.9023010715842L508.17583333333334,261.3766294330358L509.51666666666665,258.7484753116965L510.8575,282.09872081726786L512.1983333333334,275.688601693511L513.5391666666667,273.64067979007956L514.88,266.3421174868941L516.2208333333334,284.9926650881767L517.5616666666666,272.0844872653484L518.9025,261.9191933780908L520.2433333333333,266.2380192786455L521.5841666666666,261.56588610112664L522.9250000000001,252.2782629713416L524.2658333333333,279.519394634664L525.6066666666667,273.8434195876121L526.9475,273.4334690853953L528.2883333333333,269.3528334036469L529.6291666666666,274.3668677642941L530.97,254.84245143681764L532.3108333333333,269.9764017373323L533.6516666666666,296.3681666538119L534.9925000000001,277.742085827887L536.3333333333333,272.17760182768103L537.6741666666667,274.62945435047146L539.015,272.4226920291781L540.3558333333333,268.8446285560727L541.6966666666667,257.94557783603665L543.0375,263.16383056193587L544.3783333333333,278.7985576674342L545.7191666666666,273.6827485620975L547.0600000000001,270.9467294052243L548.4008333333334,277.5136471152305L549.7416666666667,217.7991550773382L551.0825000000001,278.81982087939974L552.4233333333333,286.966975441575L553.7641666666667,247.11088001579046L555.1049999999999,268.25439840406176L556.4458333333333,263.84897067993876L557.7866666666666,275.20088557004925L559.1274999999999,277.5865545853972L560.4683333333334,267.14072007536885L561.8091666666667,258.7732237190008L563.15,281.5579170718789L564.4908333333333,248.4399715796113L565.8316666666667,274.9308709412813L567.1725,270.26359591484066L568.5133333333333,266.8558141574263L569.8541666666667,257.5450268000364L571.1949999999999,259.2739653199911L572.5358333333334,278.23582183420655L573.8766666666667,275.52310772091147L575.2175,254.40363366007804L576.5583333333334,278.02442185431715L577.8991666666667,259.84504449963566L579.24,269.0966539442539L580.5808333333333,283.0216287061572L581.9216666666667,295.49732547104355L583.2624999999999,282.2648132577538L584.6033333333334,268.2080347448587L585.9441666666667,282.5439809247851L587.285,259.28547702580687L588.6258333333334,280.88615447133776L589.9666666666666,282.8542689219117L591.3075,269.8667765021324L592.6483333333333,276.40366520583626L593.9891666666666,276.360575518012L595.33,256.88885956853625L596.6708333333333,288.50127108246085L598.0116666666667,262.05120835304257L599.3525,270.7484253108501L600.6933333333334,253.5013201072812L602.0341666666667,254.1290073081851L603.375,274.7710800155997L604.7158333333333,255.57321593016385L606.0566666666666,287.69914809465405L607.3975,277.93584860712286L608.7383333333333,271.3289743646979L610.0791666666667,256.2492382138967L611.42,271.70132700204846L612.7608333333334,285.2321226507425L614.1016666666667,267.02859535664317L615.4425,283.89595508426424L616.7833333333334,263.7843361482024L618.1241666666666,274.008737540245L619.465,228.48384868204593L620.8058333333333,278.21332648247477L622.1466666666666,281.9947282209992L623.4875000000001,259.9612528815865L624.8283333333333,281.6281490385532L626.1691666666667,260.5278611540794L627.51,268.814564345777L628.8508333333333,263.3769907414913L630.1916666666666,274.33634590208527L631.5325,254.61207650452852L632.8733333333333,256.35925069302317L634.2141666666666,294.52682178318497L635.5550000000001,276.60063154846426L636.8958333333333,285.3941314280033L638.2366666666667,273.7300627291202L639.5775,279.255963152647L640.9183333333333,241.2545549109578L642.2591666666667,272.1790803954005L643.6,287.9168495893478L644.9408333333333,275.5724989235401L646.2816666666666,259.0649592116475L647.6225000000001,268.7009962633252L648.9633333333334,270.4153603300452L650.3041666666667,270.08176728934046L651.6450000000001,275.8401548847556L652.9858333333333,298.85156195461747L654.3266666666667,261.4483047634363L655.6674999999999,266.54728635996577L657.0083333333333,272.87411283552643L658.3491666666666,273.6167058706283L659.6899999999999,263.42940948754546L661.0308333333334,260.7666498407721L662.3716666666667,275.07362313419577L663.7125,280.5365436136722L665.0533333333333,257.1088141188025L666.3941666666667,283.2980856657028L667.735,256.32897525876757L669.0758333333333,281.68158870041367L670.4166666666667,247.62369658648967L671.7574999999999,272.95913047939536L673.0983333333334,283.8196328267455L674.4391666666667,275.7493989899754L675.78,283.28481376022097L677.1208333333334,242.39238317906856L678.4616666666667,288.8400391101837L679.8025,269.537724776566L681.1433333333333,281.01394496709105L682.4841666666667,280.7228079423308L683.8249999999999,278.08395180702206L685.1658333333334,289.4576227650046L686.5066666666667,265.603678523004L687.8475,286.69421490132805L689.1883333333334,260.40563288927075L690.5291666666666,286.1885799452662L691.87,280.0825177118182L693.2108333333333,282.446747495234L694.5516666666666,273.38724624216553L695.8925,285.8530858889222L697.2333333333333,294.31489374339577L698.5741666666667,298.68860266953703L699.915,284.6970219522714L701.2558333333334,282.48247954845425L702.5966666666667,278.8842089831829L703.9375,290.352860315144L705.2783333333333,286.6151467323303L706.6191666666666,289.3450755983591L707.96,284.43471699804064L709.3008333333333,283.42341188192364L710.6416666666667,276.09277874082323L711.9825,288.9795525357127L713.3233333333334,282.8556770816445L714.6641666666667,282.1611022934317L716.005,272.25621234476563L717.3458333333334,288.86837832480666L718.6866666666666,266.3897484898567L720.0275,286.960603518784L721.3683333333333,278.46464779078957L722.7091666666666,287.2827904656529L724.0500000000001,262.49498989284035L725.3908333333333,289.42498866319653L726.7316666666667,271.8746010571718L728.0725,261.4975551500916L729.4133333333333,282.3585262879729L730.7541666666666,273.258223606646L732.095,280.1436318442225L733.4358333333333,277.035400865972L734.7766666666666,283.9934349417686L736.1175000000001,275.85972830504176" style="fill: none;" fill="none"></path></g><g><path stroke="rgb(0, 153, 136)" stroke-width="2px" d="M83.13166666666666,-20.60735706388952L84.4725,10.035325250029505L85.81333333333333,8.357221296429575L87.15416666666667,12.805527484416903L88.495,19.378887525200785L89.83583333333333,26.739831304550112L91.17666666666666,41.92063812017435L92.5175,27.005058190226496L93.85833333333333,61.98529492914671L95.19916666666667,72.75870259702204L96.53999999999999,61.06682274341578L97.88083333333334,78.59742570519445L99.22166666666666,88.54642625749109L100.5625,66.0174195080995L101.90333333333334,89.80074453949926L103.24416666666666,88.0336448907852L104.58500000000001,101.13417733311651L105.92583333333333,88.86903565227983L107.26666666666667,105.6297272801399L108.6075,106.71562965810297L109.94833333333332,101.00723173320291L111.28916666666667,115.85958529114721L112.63000000000001,98.52992672324179L113.97083333333333,108.07175788879393L115.31166666666667,100.49867484569548L116.65249999999999,132.00279887616634L117.99333333333334,130.98631877303123L119.33416666666668,121.08195688426493L120.675,133.6663283765316L122.01583333333333,134.67379625737667L123.35666666666665,134.74378179609775L124.6975,130.95949333012103L126.03833333333334,126.79267827272413L127.37916666666666,118.967957085371L128.72,142.6001865774393L130.06083333333333,134.0160448461771L131.40166666666667,139.90623619258403L132.7425,152.1462422221899L134.08333333333331,144.16535612046718L135.42416666666668,150.50228614211082L136.76500000000001,153.62671095728874L138.10583333333332,138.09301931262016L139.44666666666666,155.64777221381664L140.7875,158.61427191495895L142.12833333333333,158.39685205221176L143.46916666666667,155.59327643215656L144.81,154.69944704174995L146.15083333333334,172.1896358191967L147.49166666666665,164.59113549292087L148.8325,169.73056647777557L150.17333333333335,169.07422322630882L151.51416666666665,159.70559570789337L152.855,171.70720029473304L154.19583333333335,160.4555111736059L155.53666666666666,158.46571106314659L156.8775,170.73183845579624L158.21833333333333,160.19155163168907L159.55916666666667,171.45697031021118L160.9,163.89275867342948L162.24083333333334,172.81626690030097L163.58166666666668,181.58445510864257L164.92249999999999,184.15272723734378L166.26333333333332,158.8386621683836L167.60416666666669,181.2045336127281L168.945,162.46389899253845L170.28583333333333,194.42018311321735L171.62666666666667,167.04372729957103L172.9675,174.69996217489242L174.30833333333334,173.19034453332424L175.64916666666667,183.1239257365465L176.99,173.97201400101184L178.33083333333335,167.40379374325275L179.67166666666665,172.27898355424404L181.01250000000002,191.15508314073085L182.35333333333332,192.30963330566883L183.69416666666666,184.27692692577838L185.035,182.2204504519701L186.37583333333333,185.38599353134632L187.71666666666667,157.92293589413165L189.05749999999998,190.42783904671668L190.39833333333334,193.9540822416544L191.73916666666668,193.17234236598014L193.07999999999998,175.94871822595596L194.42083333333335,187.01798025369644L195.76166666666668,201.18758756518363L197.1025,196.31655182540416L198.44333333333333,204.57695763409137L199.78416666666666,178.46517007648944L201.125,201.836749202013L202.4658333333333,188.55942230522632L203.80666666666667,207.08770643770694L205.1475,202.610110527277L206.48833333333332,194.92282572984695L207.82916666666668,207.53606449663639L209.17000000000002,186.84787455797195L210.51083333333332,212.04104911386966L211.85166666666666,200.38064163029193L213.19250000000002,199.21236190795898L214.53333333333333,210.55360998809337L215.87416666666664,205.89513595998287L217.215,209.0201240390539L218.55583333333334,206.5206405133009L219.89666666666665,210.72547588348388L221.2375,218.00411272644996L222.57833333333335,204.21125855147838L223.91916666666665,200.96728097498416L225.26000000000002,200.27249496281146L226.60083333333333,207.21845406889915L227.94166666666666,205.19450608491897L229.28249999999997,204.40762642621993L230.62333333333333,205.89239004850387L231.96416666666667,225.51171634197235L233.30499999999998,217.8668875604868L234.64583333333334,218.59793368577957L235.98666666666668,220.30349675416946L237.3275,218.76402612626552L238.66833333333335,223.37131354808807L240.00916666666666,216.85618091225624L241.35,210.9535977602005L242.69083333333336,211.40561703443527L244.03166666666667,215.883846616745L245.3725,224.82897009551525L246.7133333333333,213.54080963730812L248.05416666666667,223.50558157861232L249.395,223.61999455690383L250.73583333333332,223.73750548660755L252.07666666666668,209.53987579643726L253.4175,233.4403597176075L254.75833333333333,218.79796277582645L256.0991666666667,226.92628320157527L257.44,227.57044587135314L258.7808333333333,232.68438916504383L260.12166666666667,222.4748086541891L261.46250000000003,227.14328061640262L262.80333333333334,242.4254749327898L264.14416666666665,218.96229501664638L265.485,219.17584244012832L266.8258333333333,230.40436733365058L268.16666666666663,232.563569059968L269.5075,225.99478553831577L270.84833333333336,230.83610910773277L272.18916666666667,240.6371824800968L273.53000000000003,232.0850059747696L274.87083333333334,240.8729788273573L276.21166666666664,243.24340451359748L277.55249999999995,236.49867143332958L278.8933333333333,236.15712229013442L280.2341666666667,241.37333318442106L281.575,238.19677125513553L282.91583333333335,234.85823575258254L284.25666666666666,245.0997110813856L285.59749999999997,241.47774822860956L286.93833333333333,233.38149864077567L288.2791666666667,238.2552098840475L289.62,244.04059894233941L290.96083333333337,241.9994010016322L292.3016666666667,233.7857813000679L293.6425,250.03467727303504L294.9833333333333,254.76355928778648L296.32416666666666,240.93007970452308L297.665,237.50015463531017L299.0058333333333,251.2132717654109L300.3466666666667,244.48536619395017L301.6875,255.45827489197254L303.0283333333333,243.45765601694583L304.3691666666667,240.100462397933L305.71,250.3800284475088L307.05083333333334,250.69732203930616L308.3916666666667,247.0880678281188L309.7325,249.52411375790834L311.0733333333333,252.8902843952179L312.41416666666663,239.1689647346735L313.755,246.1523104816675L315.0958333333333,251.53172708898782L316.43666666666667,245.70990189760923L317.77750000000003,235.32961722314357L319.11833333333334,247.28936426192521L320.45916666666665,252.43129473030567L321.8,253.9879801109433L323.1408333333333,261.40782017111775L324.4816666666667,265.3737964466214L325.82250000000005,240.24261612296104L327.16333333333336,249.43487163484096L328.50416666666666,250.8240212112665L329.84499999999997,263.0082289114594L331.18583333333333,254.05268505066633L332.52666666666664,261.20106711834666L333.8675,248.003054818511L335.20833333333337,246.8813147753477L336.5491666666667,269.7567288190126L337.89,254.81580201387405L339.23083333333335,261.8708582952618L340.57166666666666,267.26594067960974L341.91249999999997,245.1363232344389L343.25333333333333,253.51149406135082L344.5941666666667,263.3121801897883L345.935,263.4247977644205L347.2758333333333,268.59964396655556L348.6166666666667,268.8794101014733L349.9575,245.53789518624544L351.29833333333335,259.3739798650145L352.63916666666665,254.1304154679179L353.98,253.52807514220476L355.3208333333333,269.6080623552203L356.6616666666667,273.7894166618585L358.0025,270.35544313341376L359.3433333333333,267.2180280447006L360.68416666666667,252.92566440850496L362.02500000000003,268.89518149048087L363.36583333333334,260.83726905137297L364.70666666666665,270.1508023202419L366.0475,248.1809405967593L367.3883333333333,260.4808638229966L368.72916666666663,271.9410661965608L370.07,260.82350428998467L371.41083333333336,260.59161558598277L372.75166666666667,270.44542454034087L374.09250000000003,268.8514229267835L375.43333333333334,267.1862036347389L376.77416666666664,265.51239456832405L378.11499999999995,273.32708261758086L379.4558333333333,276.8442431822419L380.7966666666667,275.8104075103998L382.1375,268.90620034039017L383.47833333333335,250.5079949632287L384.81916666666666,272.4815531060099L386.15999999999997,263.1655907616019L387.50083333333333,267.88880493342873L388.8416666666667,268.68198610693213L390.1825,271.95454932600256L391.52333333333337,268.1109773352742L392.8641666666667,278.97260621041056L394.205,275.1464249923825L395.5458333333333,271.06797195821997L396.88666666666666,272.9944752886891L398.2275,267.29660335779187L399.5683333333333,263.68657465875145L400.9091666666667,270.5234013855457L402.25,262.6439027845859L403.59083333333336,274.49458785206076L404.9316666666666,267.84772187322375L406.2725,283.1214320272207L407.61333333333334,262.533291837573L408.95416666666665,269.60510521978136L410.295,271.84907816201445L411.6358333333334,265.22801671028134L412.97666666666663,269.3557201310992L414.3175,281.51627074778077L415.65833333333336,280.56857924759385L416.99916666666667,268.6920896530151L418.34000000000003,262.1500259622931L419.6808333333333,279.4906329721212L421.02166666666665,272.07888983041045L422.3625,281.5580930918455L423.7033333333333,263.5025985896587L425.0441666666667,272.09610458314415L426.38500000000005,273.390590621531L427.7258333333333,271.95437330603596L429.06666666666666,291.35318178534504L430.4075,282.1624752491712L431.7483333333333,267.126568070054L433.08916666666664,268.0958396181464L434.43,288.9451582342386L435.7708333333333,277.7568715050816L437.1116666666667,287.6644721612334L438.45250000000004,285.8045747861266L439.7933333333333,285.1191530361771L441.13416666666666,284.6977964401245L442.475,276.2955537423491L443.81583333333333,284.35300852954384L445.1566666666667,285.60187019258734L446.49750000000006,286.09778884649273L447.8383333333333,288.26110944002863L449.1791666666667,283.45766536742445L450.52000000000004,289.52035628110167L451.86083333333335,285.9646121397614L453.20166666666665,292.29464217871424L454.54249999999996,279.8510162517428L455.8833333333333,281.51919267922636L457.2241666666667,287.7546647921204L458.56499999999994,271.5899415671825L459.9058333333333,292.0267045855522L461.24666666666667,278.3839954420924L462.5875,283.7288769319653L463.92833333333334,277.7535271257162L465.2691666666667,297.05531339943406L466.60999999999996,272.49862704277035L467.9508333333333,288.41269783526656L469.2916666666667,293.9492650687694L470.6325,277.3130547612905L471.97333333333336,287.3613657787442L473.3141666666667,292.4636213466525L474.655,295.39998642951247L475.99583333333334,275.1088975355029L477.3366666666667,291.670651397109L478.67749999999995,278.87438706904646L480.0183333333333,289.6965874716639L481.3591666666667,286.00386459231373L482.7,276.0089932367205L484.04083333333335,289.5608760774135L485.3816666666667,292.94795788675543L486.72249999999997,294.1890394672751L488.06333333333333,281.09565343558785L489.40416666666664,291.1090068876743L490.745,290.00796679258343L492.08583333333337,290.6055545791983L493.4266666666666,295.54034475088116L494.7675,297.9781156763434L496.10833333333335,290.2196484044194L497.44916666666666,297.82712574899193L498.79,283.78171812593934L500.1308333333334,294.71463508754965L501.47166666666664,290.21598718911406L502.8125,294.3716777846217L504.15333333333336,291.29520080834624L505.4941666666666,289.1615571811795L506.835,294.97732728570696L508.17583333333334,299.39067590832707L509.51666666666665,294.8336245849728L510.8575,289.80188261568543L512.1983333333334,291.5158242344856L513.5391666666667,294.4931315615773L514.88,296.42470426708456L516.2208333333334,298.95956780612465L517.5616666666666,292.02473316192624L518.9025,301.64770953208205L520.2433333333333,298.8431834042072L521.5841666666666,282.9618171215057L522.9250000000001,304.0464040249586L524.2658333333333,300.4620390370488L525.6066666666667,304.51905283927914L526.9475,285.56335702389475L528.2883333333333,304.6285724624991L529.6291666666666,304.37665268629786L530.97,299.25908338129517L532.3108333333333,286.7498372107744L533.6516666666666,290.66684473156926L534.9925000000001,302.4134315907955L536.3333333333333,300.6588293597102L537.6741666666667,291.33114408552643L539.015,300.22736921757456L540.3558333333333,292.06138051897284L541.6966666666667,287.1591188371181L543.0375,295.8543643712997L544.3783333333333,296.3812273353338L545.7191666666666,306.7105014234781L547.0600000000001,292.8084092572331L548.4008333333334,305.880989728868L549.7416666666667,302.07040387988087L551.0825000000001,305.6682872012257L552.4233333333333,293.01160670667883L553.7641666666667,302.2672294065356L555.1049999999999,290.031870304048L556.4458333333333,304.0828753620386L557.7866666666666,302.83978715389964L559.1274999999999,300.50224199742075L560.4683333333334,296.06410976350304L561.8091666666667,297.27167714238163L563.15,301.42395295053717L564.4908333333333,301.59437548220154L565.8316666666667,289.6026632174849L567.1725,304.06302030980584L568.5133333333333,310.4335349410772L569.8541666666667,294.69914533048865L571.1949999999999,310.50964597463604L572.5358333333334,303.6163872465491L573.8766666666667,292.9028615713119L575.2175,311.2408681198954L576.5583333333334,309.68104958385226L577.8991666666667,302.7108349263668L579.24,290.05151413232085L580.5808333333333,314.91510890275237L581.9216666666667,295.0040471166372L583.2624999999999,302.0265749081969L584.6033333333334,315.5272359386086L585.9441666666667,304.956251232326L587.285,310.44944714605805L588.6258333333334,295.42505167275664L589.9666666666666,304.7276012957096L591.3075,296.87693476527926L592.6483333333333,309.7129796057939L593.9891666666666,306.1712466537952L595.33,304.37024555951353L596.6708333333333,306.4154919594526L598.0116666666667,295.914598403871L599.3525,307.9383463025093L600.6933333333334,296.7357667520642L602.0341666666667,303.03112085759636L603.375,307.9258136808872L604.7158333333333,309.80764314383265L606.0566666666666,294.5239350557327L607.3975,295.971276833117L608.7383333333333,306.28400504440066L610.0791666666667,307.57106304019686L611.42,306.4061629012227L612.7608333333334,302.78972707539793L614.1016666666667,317.26420096904036L615.4425,303.75928025543686L616.7833333333334,316.04251678884026L618.1241666666666,316.35125581026074L619.465,302.07332581132647L620.8058333333333,310.97877438962456L622.1466666666666,303.28258298188445L623.4875000000001,300.68885836601254L624.8283333333333,301.81010555326935L626.1691666666667,313.53736542016264L627.51,309.51059184819457L628.8508333333333,307.9481682166457L630.1916666666666,306.4509775847196L631.5325,317.51168504208323L632.8733333333333,314.31907009184357L634.2141666666666,305.6231556817889L635.5550000000001,316.86695910841223L636.8958333333333,318.6997494086623L638.2366666666667,314.00198772400614L639.5775,311.34736019968983L640.9183333333333,305.9253819644451L642.2591666666667,313.4573467433452L643.6,305.4322092220187L644.9408333333333,310.72488318979737L646.2816666666666,311.05580072700974L647.6225000000001,301.530163398385L648.9633333333334,316.77669606953856L650.3041666666667,310.74047855883833L651.6450000000001,305.26699688136574L652.9858333333333,306.8018557861447L654.3266666666667,318.0065827801823L655.6674999999999,310.05618333667513L657.0083333333333,309.8197533175349L658.3491666666666,315.476859024167L659.6899999999999,318.5626298546791L661.0308333333334,318.1114906802773L662.3716666666667,321.683428658545L663.7125,305.03426328152415L665.0533333333333,311.98867134600874L666.3941666666667,309.856787918508L667.735,318.6676081627607L669.0758333333333,311.63395590931174L670.4166666666667,305.9262620642781L671.7574999999999,304.1068492814898L673.0983333333334,319.7332682445645L674.4391666666667,323.1062332525849L675.78,320.890071465075L677.1208333333334,306.91098816543814L678.4616666666667,308.6027160644531L679.8025,312.4194626122713L681.1433333333333,316.98862410932776L682.4841666666667,319.9783584460616L683.8249999999999,315.7817608103156L685.1658333333334,311.45765431076285L686.5066666666667,321.65258996039626L687.8475,320.53345501273867L689.1883333333334,314.0954895302653L690.5291666666666,322.25031856298443L691.87,306.83927763104435L693.2108333333333,318.1114906802773L694.5516666666666,325.87221100777384L695.8925,316.0864161685109L697.2333333333333,311.32173169255253L698.5741666666667,319.92946009933945L699.915,325.7386822611093L701.2558333333334,314.06683347970244L702.5966666666667,326.26371461749073L703.9375,324.04104009121653L705.2783333333333,321.81477475762364L706.6191666666666,323.8139039263129L707.96,309.656195564568L709.3008333333333,319.1556411221623L710.6416666666667,324.2076605916023L711.9825,311.6930282101035L713.3233333333334,318.28219484388825L714.6641666666667,317.36101195067164L716.005,318.47539435923096L717.3458333333334,320.883699542284L718.6866666666666,309.34059176445004L720.0275,323.0041768759489L721.3683333333333,322.6699501633644L722.7091666666666,307.2647530943155L724.0500000000001,314.3212175354361L725.3908333333333,322.1630126595497L726.7316666666667,320.69458369016644L728.0725,316.8191168814897L729.4133333333333,316.44912291169163L730.7541666666666,318.6056491345167L732.095,324.0213962629437L733.4358333333333,318.0819193258881L734.7766666666666,328.86367034018036L736.1175000000001,311.05717368274924" style="fill: none;" fill="none"></path></g></g></g></g></g></g><g transform="translate(70, 378)" clip-path="url(#clip_1)"><clipPath id="clip_1"><rect width="804" height="22"></rect></clipPath><g><g><line x1="0" y1="0" x2="0" y2="5" style="visibility: inherit;" fill="rgb(0, 0, 0)" stroke="rgb(204, 204, 204)" stroke-width="1px"></line><line x1="67.04166666666666" y1="0" x2="67.04166666666666" y2="5" style="visibility: inherit;" fill="rgb(0, 0, 0)" stroke="rgb(204, 204, 204)" stroke-width="1px"></line><line x1="134.08333333333331" y1="0" x2="134.08333333333331" y2="5" style="visibility: inherit;" fill="rgb(0, 0, 0)" stroke="rgb(204, 204, 204)" stroke-width="1px"></line><line x1="201.125" y1="0" x2="201.125" y2="5" style="visibility: inherit;" fill="rgb(0, 0, 0)" stroke="rgb(204, 204, 204)" stroke-width="1px"></line><line x1="268.16666666666663" y1="0" x2="268.16666666666663" y2="5" style="visibility: inherit;" fill="rgb(0, 0, 0)" stroke="rgb(204, 204, 204)" stroke-width="1px"></line><line x1="335.20833333333337" y1="0" x2="335.20833333333337" y2="5" style="visibility: inherit;" fill="rgb(0, 0, 0)" stroke="rgb(204, 204, 204)" stroke-width="1px"></line><line x1="402.25" y1="0" x2="402.25" y2="5" style="visibility: inherit;" fill="rgb(0, 0, 0)" stroke="rgb(204, 204, 204)" stroke-width="1px"></line><line x1="469.2916666666667" y1="0" x2="469.2916666666667" y2="5" style="visibility: inherit;" fill="rgb(0, 0, 0)" stroke="rgb(204, 204, 204)" stroke-width="1px"></line><line x1="536.3333333333333" y1="0" x2="536.3333333333333" y2="5" style="visibility: inherit;" fill="rgb(0, 0, 0)" stroke="rgb(204, 204, 204)" stroke-width="1px"></line><line x1="603.375" y1="0" x2="603.375" y2="5" style="visibility: inherit;" fill="rgb(0, 0, 0)" stroke="rgb(204, 204, 204)" stroke-width="1px"></line><line x1="670.4166666666667" y1="0" x2="670.4166666666667" y2="5" style="visibility: inherit;" fill="rgb(0, 0, 0)" stroke="rgb(204, 204, 204)" stroke-width="1px"></line><line x1="737.4583333333333" y1="0" x2="737.4583333333333" y2="5" style="visibility: inherit;" fill="rgb(0, 0, 0)" stroke="rgb(204, 204, 204)" stroke-width="1px"></line><line x1="804.5" y1="0" x2="804.5" y2="5" style="visibility: inherit;" fill="rgb(0, 0, 0)" stroke="rgb(204, 204, 204)" stroke-width="1px"></line></g><g transform="translate(0, 8)"><text x="0" y="0" dx="0em" dy="0.95em" style="text-anchor: middle; visibility: hidden; font-family: Roboto, sans-serif; font-size: 12px; font-weight: 200;" fill="rgb(50, 49, 63)" stroke="none" stroke-width="1px">-50</text><text x="67.04166666666666" y="0" dx="0em" dy="0.95em" style="text-anchor: middle; visibility: inherit; font-family: Roboto, sans-serif; font-size: 12px; font-weight: 200;" fill="rgb(50, 49, 63)" stroke="none" stroke-width="1px">0</text><text x="134.08333333333331" y="0" dx="0em" dy="0.95em" style="text-anchor: middle; visibility: inherit; font-family: Roboto, sans-serif; font-size: 12px; font-weight: 200;" fill="rgb(50, 49, 63)" stroke="none" stroke-width="1px">50</text><text x="201.125" y="0" dx="0em" dy="0.95em" style="text-anchor: middle; visibility: inherit; font-family: Roboto, sans-serif; font-size: 12px; font-weight: 200;" fill="rgb(50, 49, 63)" stroke="none" stroke-width="1px">100</text><text x="268.16666666666663" y="0" dx="0em" dy="0.95em" style="text-anchor: middle; visibility: inherit; font-family: Roboto, sans-serif; font-size: 12px; font-weight: 200;" fill="rgb(50, 49, 63)" stroke="none" stroke-width="1px">150</text><text x="335.20833333333337" y="0" dx="0em" dy="0.95em" style="text-anchor: middle; visibility: inherit; font-family: Roboto, sans-serif; font-size: 12px; font-weight: 200;" fill="rgb(50, 49, 63)" stroke="none" stroke-width="1px">200</text><text x="402.25" y="0" dx="0em" dy="0.95em" style="text-anchor: middle; visibility: inherit; font-family: Roboto, sans-serif; font-size: 12px; font-weight: 200;" fill="rgb(50, 49, 63)" stroke="none" stroke-width="1px">250</text><text x="469.2916666666667" y="0" dx="0em" dy="0.95em" style="text-anchor: middle; visibility: inherit; font-family: Roboto, sans-serif; font-size: 12px; font-weight: 200;" fill="rgb(50, 49, 63)" stroke="none" stroke-width="1px">300</text><text x="536.3333333333333" y="0" dx="0em" dy="0.95em" style="text-anchor: middle; visibility: inherit; font-family: Roboto, sans-serif; font-size: 12px; font-weight: 200;" fill="rgb(50, 49, 63)" stroke="none" stroke-width="1px">350</text><text x="603.375" y="0" dx="0em" dy="0.95em" style="text-anchor: middle; visibility: inherit; font-family: Roboto, sans-serif; font-size: 12px; font-weight: 200;" fill="rgb(50, 49, 63)" stroke="none" stroke-width="1px">400</text><text x="670.4166666666667" y="0" dx="0em" dy="0.95em" style="text-anchor: middle; visibility: inherit; font-family: Roboto, sans-serif; font-size: 12px; font-weight: 200;" fill="rgb(50, 49, 63)" stroke="none" stroke-width="1px">450</text><text x="737.4583333333333" y="0" dx="0em" dy="0.95em" style="text-anchor: middle; visibility: inherit; font-family: Roboto, sans-serif; font-size: 12px; font-weight: 200;" fill="rgb(50, 49, 63)" stroke="none" stroke-width="1px">500</text><text x="804.5" y="0" dx="0em" dy="0.95em" style="text-anchor: middle; visibility: hidden; font-family: Roboto, sans-serif; font-size: 12px; font-weight: 200;" fill="rgb(50, 49, 63)" stroke="none" stroke-width="1px">550</text></g><line x1="0" y1="0" x2="804.5" y2="0" fill="rgb(0, 0, 0)" stroke="rgb(204, 204, 204)" stroke-width="1px"></line></g></g></g></g></svg>